<svg width="24" height="25" viewBox="0 0 24 25" fill="none" xmlns="http://www.w3.org/2000/svg">
<path d="M12.0003 1.35547C9.88159 1.35716 7.80642 1.95712 6.01367 3.08627H17.9706C16.1825 1.96008 14.1134 1.36024 12.0003 1.35547V1.35547Z" fill="#B22234"/>
<path d="M6.01416 3.08643C5.24188 3.57532 4.53206 4.15651 3.90039 4.81714H20.1145C19.4736 4.1546 18.7537 3.57334 17.971 3.08643H6.01416Z" fill="white"/>
<path d="M3.9003 4.81689C3.38969 5.34775 2.93245 5.92747 2.53516 6.5477H21.4792C21.082 5.92748 20.6249 5.34777 20.1144 4.81689H3.9003Z" fill="#B22234"/>
<path d="M2.53522 6.54785C2.18013 7.09703 1.87361 7.67613 1.61914 8.27856H22.3741C22.1264 7.67686 21.827 7.09779 21.4792 6.54785H2.53522Z" fill="white"/>
<path d="M1.61838 8.27832C1.38803 8.83943 1.20344 9.41825 1.06641 10.0091H22.9328C22.7933 9.41804 22.6063 8.83921 22.3734 8.27832H1.61838Z" fill="#B22234"/>
<path d="M1.06607 10.0093C0.930177 10.5782 0.838866 11.1569 0.792969 11.7401H23.213C23.1647 11.1567 23.0709 10.578 22.9324 10.0093H1.06607Z" fill="white"/>
<path d="M0.793304 11.7402C0.767763 12.028 0.753317 12.3167 0.75 12.6056C0.751095 12.8944 0.763311 13.1831 0.786621 13.4709H23.2067C23.2322 13.1832 23.2467 12.8945 23.25 12.6056C23.2489 12.3168 23.2367 12.0281 23.2134 11.7402H0.793304Z" fill="#B22234"/>
<path d="M0.787109 13.4707C0.835475 14.0541 0.929296 14.6328 1.06772 15.2015H22.9341C23.07 14.6326 23.1613 14.0539 23.2072 13.4707H0.787109Z" fill="white"/>
<path d="M1.06641 15.2017C1.20585 15.7927 1.39292 16.3716 1.62579 16.9325H22.3808C22.6111 16.3714 22.7957 15.7925 22.9328 15.2017H1.06641Z" fill="#B22234"/>
<path d="M1.62695 16.9326C1.87465 17.5343 2.17408 18.1134 2.52188 18.6633H21.4659C21.821 18.1141 22.1275 17.5351 22.382 16.9326H1.62695Z" fill="white"/>
<path d="M2.52148 18.6631C2.91866 19.2833 3.37578 19.863 3.88626 20.3939H20.1003C20.611 19.863 21.0682 19.2833 21.4655 18.6631H2.52148Z" fill="#B22234"/>
<path d="M3.88672 20.394C4.52759 21.0566 5.24747 21.6378 6.03015 22.1248H17.987C18.7593 21.6359 19.4691 21.0547 20.1008 20.394H3.88672Z" fill="white"/>
<path d="M6.0293 22.1245C7.81733 23.2507 9.8864 23.8505 11.9995 23.8553C14.1183 23.8536 16.1934 23.2537 17.9862 22.1245H6.0293Z" fill="#B22234"/>
<path d="M12 1.35547C9.01631 1.35547 6.15483 2.54073 4.04505 4.65052C1.93526 6.7603 0.75 9.62178 0.75 12.6055C0.751472 12.9028 0.764727 13.1999 0.789734 13.4961H12.8906V1.40005C12.5945 1.37343 12.2973 1.35855 12 1.35547V1.35547Z" fill="#3C3B6E"/>
<path d="M7.97396 2.11393C7.82406 2.16866 7.67534 2.22656 7.52791 2.28761L7.69225 2.41249L7.5811 2.77165L7.87554 2.55183L8.17858 2.78218L8.06478 2.41047L8.36782 2.18425H7.99547L7.97396 2.11393ZM9.88225 1.80664L9.76536 2.18422H9.39431L9.69466 2.41251L9.58349 2.77163L9.87791 2.55182L10.181 2.78216L10.0672 2.41052L10.3702 2.18422H9.99788L9.88225 1.80664V1.80664ZM11.8846 1.80664L11.7677 2.18422H11.3967L11.697 2.41251L11.5859 2.77163L11.8803 2.55182L12.1834 2.78216L12.0695 2.41052L12.3726 2.18422H12.0003L11.8846 1.80664ZM5.07943 3.75273C5.02652 3.79218 4.97397 3.8321 4.92177 3.87248L5.17501 4.06501L5.07943 3.75273ZM6.87867 3.08947L6.76178 3.46705H6.39073L6.69108 3.69534L6.57991 4.05446L6.87433 3.83465L7.1774 4.06499L7.06359 3.69335L7.36661 3.46705H6.9943L6.87867 3.08947ZM8.88106 3.08947L8.76417 3.46705H8.39311L8.69347 3.69534L8.5823 4.05446L8.87672 3.83465L9.17978 4.06499L9.06597 3.69335L9.369 3.46705H8.99669L8.88106 3.08947V3.08947ZM10.8834 3.08947L10.7666 3.46705H10.3955L10.6959 3.69534L10.5847 4.05446L10.8791 3.83465L11.1822 4.06499L11.0684 3.69335L11.3714 3.46705H10.9991L10.8834 3.08947V3.08947ZM3.98143 4.71962C3.87047 4.83708 3.76204 4.95692 3.65624 5.07905L3.57631 5.33723L3.87075 5.11741L4.17379 5.34776L4.05999 4.97615L4.36302 4.74983H3.99068L3.98143 4.71962ZM5.87748 4.37225L5.76059 4.74982H5.38954L5.68989 4.97812L5.57872 5.33723L5.87313 5.11743L6.1762 5.34777L6.06239 4.97612L6.36542 4.74982H5.99311L5.87748 4.37225V4.37225ZM7.87986 4.37225L7.76297 4.74982H7.39192L7.69227 4.97812L7.5811 5.33723L7.87552 5.11743L8.17858 5.34777L8.06478 4.97612L8.36781 4.74982H7.99549L7.87986 4.37225V4.37225ZM9.88225 4.37225L9.76536 4.74982H9.39431L9.69466 4.97812L9.58349 5.33723L9.87791 5.11743L10.181 5.34777L10.0672 4.97612L10.3702 4.74982H9.99788L9.88225 4.37225V4.37225ZM11.8846 4.37225L11.7677 4.74982H11.3967L11.697 4.97812L11.5859 5.33723L11.8803 5.11743L12.1834 5.34777L12.0695 4.97612L12.3726 4.74982H12.0003L11.8846 4.37225V4.37225ZM2.95888 5.93251C2.85523 6.07065 2.75477 6.21116 2.65758 6.35392L2.57518 6.62007L2.86952 6.40025L3.17266 6.6306L3.05886 6.25898L3.3618 6.03267H2.98955L2.95888 5.93251ZM4.87629 5.65508L4.75939 6.03265H4.38834L4.6887 6.26095L4.57752 6.62006L4.87194 6.40026L5.17501 6.6306L5.0612 6.25895L5.36423 6.03265H4.99191L4.87629 5.65508V5.65508ZM6.87867 5.65508L6.76178 6.03265H6.39073L6.69108 6.26095L6.57991 6.62006L6.87433 6.40026L7.1774 6.6306L7.06359 6.25895L7.36661 6.03265H6.9943L6.87867 5.65508V5.65508ZM8.88106 5.65508L8.76417 6.03265H8.39311L8.69347 6.26095L8.5823 6.62006L8.87672 6.40026L9.17978 6.6306L9.06597 6.25895L9.369 6.03265H8.99669L8.88106 5.65508V5.65508ZM10.8834 5.65508L10.7666 6.03265H10.3955L10.6959 6.26095L10.5847 6.62006L10.8791 6.40026L11.1822 6.6306L11.0684 6.25895L11.3714 6.03265H10.9991L10.8834 5.65508V5.65508ZM2.08144 7.3155C2.0142 7.44152 1.94937 7.5688 1.88698 7.69728L2.17144 7.91343L2.05764 7.54182L2.36067 7.3155H2.08144ZM3.8751 6.93791L3.75821 7.31548H3.38715L3.68751 7.54378L3.57634 7.90289L3.87075 7.68309L4.17382 7.91343L4.06001 7.54178L4.36304 7.31548H3.99072L3.8751 6.93791ZM5.87748 6.93791L5.76059 7.31548H5.38954L5.68989 7.54378L5.57872 7.90289L5.87313 7.68309L6.1762 7.91343L6.06239 7.54178L6.36542 7.31548H5.99311L5.87748 6.93791V6.93791ZM7.87986 6.93791L7.76297 7.31548H7.39192L7.69227 7.54378L7.5811 7.90289L7.87552 7.68309L8.17858 7.91343L8.06478 7.54178L8.36781 7.31548H7.99549L7.87986 6.93791ZM9.88225 6.93791L9.76536 7.31548H9.39431L9.69466 7.54378L9.58349 7.90289L9.87791 7.68309L10.181 7.91343L10.0672 7.54178L10.3702 7.31548H9.99788L9.88225 6.93791V6.93791ZM11.8846 6.93791L11.7677 7.31548H11.3967L11.697 7.54378L11.5859 7.90289L11.8803 7.68309L12.1834 7.91343L12.0695 7.54178L12.3726 7.31548H12.0003L11.8846 6.93791ZM2.8739 8.22068L2.75701 8.59826H2.38596L2.68632 8.82656L2.57515 9.18567L2.86956 8.96586L3.17262 9.19621L3.05882 8.82456L3.36185 8.59826H2.98953L2.8739 8.22068V8.22068ZM4.87629 8.22068L4.75939 8.59826H4.38834L4.6887 8.82656L4.57752 9.18567L4.87194 8.96586L5.17501 9.19621L5.0612 8.82456L5.36423 8.59826H4.99191L4.87629 8.22068ZM6.87867 8.22068L6.76178 8.59826H6.39073L6.69108 8.82656L6.57991 9.18567L6.87433 8.96586L7.1774 9.19621L7.06359 8.82456L7.36661 8.59826H6.9943L6.87867 8.22068ZM8.88106 8.22068L8.76417 8.59826H8.39311L8.69347 8.82656L8.5823 9.18567L8.87672 8.96586L9.17978 9.19621L9.06597 8.82456L9.369 8.59826H8.99669L8.88106 8.22068V8.22068ZM10.8834 8.22068L10.7666 8.59826H10.3955L10.6959 8.82656L10.5847 9.18567L10.8791 8.96586L11.1822 9.19621L11.0684 8.82456L11.3714 8.59826H10.9991L10.8834 8.22068V8.22068ZM1.87271 9.50351L1.75582 9.88109H1.38477L1.68512 10.1094L1.57395 10.4685L1.86837 10.2487L2.17143 10.479L2.05763 10.1074L2.36065 9.88109H1.98834L1.87271 9.50351ZM3.8751 9.50351L3.75821 9.88109H3.38715L3.68751 10.1094L3.57634 10.4685L3.87075 10.2487L4.17382 10.479L4.06001 10.1074L4.36304 9.88109H3.99072L3.8751 9.50351ZM5.87748 9.50351L5.76059 9.88109H5.38954L5.68989 10.1094L5.57872 10.4685L5.87313 10.2487L6.1762 10.479L6.06239 10.1074L6.36542 9.88109H5.99311L5.87748 9.50351V9.50351ZM7.87986 9.50351L7.76297 9.88109H7.39192L7.69227 10.1094L7.5811 10.4685L7.87552 10.2487L8.17858 10.479L8.06478 10.1074L8.36781 9.88109H7.99549L7.87986 9.50351ZM9.88225 9.50351L9.76536 9.88109H9.39431L9.69466 10.1094L9.58349 10.4685L9.87791 10.2487L10.181 10.479L10.0672 10.1074L10.3702 9.88109H9.99788L9.88225 9.50351V9.50351ZM11.8846 9.50351L11.7677 9.88109H11.3967L11.697 10.1094L11.5859 10.4685L11.8803 10.2487L12.1834 10.479L12.0695 10.1074L12.3726 9.88109H12.0003L11.8846 9.50351ZM2.8739 10.7863L2.75701 11.1639H2.38596L2.68632 11.3922L2.57515 11.7513L2.86956 11.5315L3.17262 11.7619L3.05882 11.3902L3.36185 11.1639H2.98953L2.8739 10.7863V10.7863ZM4.87629 10.7863L4.75939 11.1639H4.38834L4.6887 11.3922L4.57752 11.7513L4.87194 11.5315L5.17501 11.7619L5.0612 11.3902L5.36423 11.1639H4.99191L4.87629 10.7863ZM6.87867 10.7863L6.76178 11.1639H6.39073L6.69108 11.3922L6.57991 11.7513L6.87433 11.5315L7.1774 11.7619L7.06359 11.3902L7.36661 11.1639H6.9943L6.87867 10.7863ZM8.88106 10.7863L8.76417 11.1639H8.39311L8.69347 11.3922L8.5823 11.7513L8.87672 11.5315L9.17978 11.7619L9.06597 11.3902L9.369 11.1639H8.99669L8.88106 10.7863V10.7863ZM10.8834 10.7863L10.7666 11.1639H10.3955L10.6959 11.3922L10.5847 11.7513L10.8791 11.5315L11.1822 11.7619L11.0684 11.3902L11.3714 11.1639H10.9991L10.8834 10.7863V10.7863ZM1.87271 12.0691L1.75582 12.4467H1.38477L1.68512 12.675L1.57395 13.0341L1.86837 12.8143L2.17143 13.0446L2.05763 12.673L2.36065 12.4467H1.98834L1.87271 12.0691V12.0691ZM3.8751 12.0691L3.75821 12.4467H3.38715L3.68751 12.675L3.57634 13.0341L3.87075 12.8143L4.17382 13.0446L4.06001 12.673L4.36304 12.4467H3.99072L3.8751 12.0691V12.0691ZM5.87748 12.0691L5.76059 12.4467H5.38954L5.68989 12.675L5.57872 13.0341L5.87313 12.8143L6.1762 13.0446L6.06239 12.673L6.36542 12.4467H5.99311L5.87748 12.0691V12.0691ZM7.87986 12.0691L7.76297 12.4467H7.39192L7.69227 12.675L7.5811 13.0341L7.87552 12.8143L8.17858 13.0446L8.06478 12.673L8.36781 12.4467H7.99549L7.87986 12.0691V12.0691ZM9.88225 12.0691L9.76536 12.4467H9.39431L9.69466 12.675L9.58349 13.0341L9.87791 12.8143L10.181 13.0446L10.0672 12.673L10.3702 12.4467H9.99788L9.88225 12.0691V12.0691ZM11.8846 12.0691L11.7677 12.4467H11.3967L11.697 12.675L11.5859 13.0341L11.8803 12.8143L12.1834 13.0446L12.0695 12.673L12.3726 12.4467H12.0003L11.8846 12.0691V12.0691Z" fill="white"/>
</svg>
