<svg width="33" height="33" viewBox="0 0 33 33" fill="none" xmlns="http://www.w3.org/2000/svg">
<path d="M27.9472 24.6382L22.8702 19.5612C23.9192 17.9802 24.5332 16.0872 24.5332 14.0522C24.5332 8.53825 20.0472 4.05225 14.5332 4.05225C9.0192 4.05225 4.5332 8.53825 4.5332 14.0522C4.5332 19.5662 9.0192 24.0522 14.5332 24.0522C16.5682 24.0522 18.4612 23.4382 20.0422 22.3892L25.1192 27.4662C25.8992 28.2472 27.1672 28.2472 27.9472 27.4662C28.7282 26.6852 28.7282 25.4192 27.9472 24.6382V24.6382ZM7.5332 14.0522C7.5332 10.1922 10.6732 7.05225 14.5332 7.05225C18.3932 7.05225 21.5332 10.1922 21.5332 14.0522C21.5332 17.9122 18.3932 21.0522 14.5332 21.0522C10.6732 21.0522 7.5332 17.9122 7.5332 14.0522V14.0522Z" fill="#5D5FEF"/>
</svg>
